<?xml version="1.0" encoding="UTF-8" standalone="no"?>
<!-- Created with Inkscape (http://www.inkscape.org/) -->

<svg
   version="1.2"
   width="13.936924mm"
   height="17.48315mm"
   id="svg3071"
   xmlns="http://www.w3.org/2000/svg"
   xmlns:svg="http://www.w3.org/2000/svg"
   xmlns:rdf="http://www.w3.org/1999/02/22-rdf-syntax-ns#"
   xmlns:cc="http://creativecommons.org/ns#"
   xmlns:dc="http://purl.org/dc/elements/1.1/">
  <defs
     id="defs3" />
  <metadata
     id="metadata3075">
    <rdf:RDF>
      <cc:Work
         rdf:about="">
        <dc:format>image/svg+xml</dc:format>
        <dc:type
           rdf:resource="http://purl.org/dc/dcmitype/StillImage" />
        <dc:title />
      </cc:Work>
    </rdf:RDF>
  </metadata>
  <g
     transform="matrix(0.18447266,0,0,0.18447266,-96.011274,66.045208)"
     id="g4889-7-0-5-1"
     style="fill:#80db00;fill-opacity:1">
    <g
       transform="matrix(0.88382531,0,0,0.88382531,473.10259,-2137.3057)"
       id="g4502-5-2-3-5-3-8-4-0-6"
       style="fill:#80db00;fill-opacity:1">
      <path
         d="m 216.47064,2013.1628 c -16.635,0.064 -30.07246,13.6065 -30.00808,30.2415 0.0437,11.28 6.2766,21.0947 15.47662,26.2215 l 0.85966,237.9045 29.49981,-0.1142 -0.85966,-237.9046 c 9.151,-5.2003 15.31675,-15.0674 15.27304,-26.3406 -0.0644,-16.635 -13.60645,-30.0726 -30.24139,-30.0081 z m 0.0583,15.0624 c 8.31743,-0.032 15.08848,6.6865 15.12074,15.004 0.0322,8.3176 -6.68662,15.0886 -15.00405,15.1208 -8.31751,0.032 -15.08856,-6.6865 -15.12073,-15.0041 -0.0323,-8.3173 6.68653,-15.0885 15.00404,-15.1207 z"
         id="path3009-8-7-0-28-3-1-2-5-9-2-2-6-1"
         style="fill:#80db00;fill-opacity:1;stroke:none" />
      <path
         d="m 120.4542,2016.7766 c 16.63383,0.1997 29.96085,13.8505 29.76118,30.4845 -0.1354,11.2792 -6.44796,21.043 -15.68938,26.0947 -1.03045,22.5566 12.25903,36.3642 25.95902,41.1582 13.70004,4.7939 44.14751,16.3748 44.14751,16.3748 l -0.5949,49.5527 c 0.70221,-23.6831 -16.10512,-22.0628 -54.38148,-38.3228 -38.2764,-16.2598 -44.31124,-44.5908 -44.62805,-69.117 -9.108466,-5.2746 -15.193746,-15.1913 -15.058389,-26.4639 0.19967,-16.6339 13.850619,-29.961 30.484489,-29.7612 z m -0.18084,15.0613 c -8.31699,-0.099 -15.1424,6.5637 -15.24221,14.8806 -0.0998,8.317 6.56366,15.1425 14.88058,15.2423 8.31696,0.1004 15.1424,-6.5636 15.24221,-14.8806 0.0998,-8.3169 -6.5636,-15.1424 -14.88058,-15.2423 z"
         id="path3009-4-9-1-1-9-1-0-4-5-9-9-4"
         style="fill:#80db00;fill-opacity:1;stroke:none" />
      <path
         d="m 309.68508,2052.9209 c -16.63318,0.2607 -29.91014,13.9603 -29.64943,30.5931 0.17668,11.2789 6.52486,21.0194 15.7848,26.0374 1.1129,22.5525 -12.12615,36.4089 -25.80847,41.2529 -13.68237,4.8438 -44.0872,16.5362 -44.0872,16.5362 l 0.77619,49.5503 c -0.78899,-23.6804 16.02431,-22.1219 54.24091,-38.5216 38.21656,-16.3999 44.1479,-44.7528 44.37477,-69.2799 9.08929,-5.308 15.13818,-15.247 14.9616,-26.5189 -0.26068,-16.6329 -13.96016,-29.9101 -30.59317,-29.6495 z m 0.23599,15.0607 c 8.31636,-0.1303 15.16631,6.5083 15.29653,14.8248 0.13022,8.3166 -6.50841,15.1662 -14.82486,15.2966 -8.31642,0.1302 -15.16617,-6.5083 -15.29653,-14.8249 -0.13021,-8.3166 6.50821,-15.1662 14.82486,-15.2965 z"
         id="path3009-4-8-1-60-2-4-1-6-6-5-5-4-5"
         style="fill:#80db00;fill-opacity:1;stroke:none" />
      <path
         d="m 337.58138,2205.8771 c -6.87616,-15.1475 -24.73587,-21.8549 -39.88314,-14.9788 -10.27137,4.6627 -16.66971,14.3705 -17.57566,24.8636 l -65.47577,29.7225 12.19393,26.862 65.4757,-29.7228 c 8.49385,6.216 20.02101,7.7966 30.28626,3.1366 15.14733,-6.8761 21.85487,-24.7357 14.97868,-39.8831 z m -13.71549,6.2261 c 3.43839,7.5736 0.0844,16.5035 -7.48934,19.9416 -7.57364,3.4385 -16.50353,0.084 -19.9416,-7.4894 -3.43835,-7.5734 -0.0844,-16.5035 7.4894,-19.9416 7.57353,-3.4383 16.50349,-0.084 19.94154,7.4894 z"
         id="path3009-8-73-9-3-7-74-6-0-8-4-0-4-8-5"
         style="fill:#80db00;fill-opacity:1;stroke:none" />
      <path
         d="m 92.668131,2165.2645 c 6.87616,-15.1475 24.735869,-21.8549 39.883139,-14.9788 10.27137,4.6627 16.66971,14.3705 17.57566,24.8636 l 65.47577,29.7225 -12.19393,26.862 -65.4757,-29.7228 c -8.49385,6.216 -20.02101,7.7966 -30.28626,3.1366 -15.147329,-6.8761 -21.854867,-24.7357 -14.978679,-39.8831 z m 13.715489,6.2261 c -3.43839,7.5736 -0.0844,16.5035 7.48934,19.9416 7.57364,3.4385 16.50353,0.084 19.9416,-7.4894 3.43835,-7.5734 0.0844,-16.5035 -7.4894,-19.9416 -7.57353,-3.4383 -16.50349,-0.084 -19.94154,7.4894 z"
         id="path3009-8-73-9-3-7-7-6-3-4-2-1-2-8-3-7"
         style="fill:#80db00;fill-opacity:1;stroke:none" />
    </g>
    <g
       transform="matrix(0.88382531,0,0,0.88382531,461.54179,-2137.3057)"
       id="g4509-6-8-4-7-2-2-2-6-9"
       style="fill:#80db00;fill-opacity:1">
      <path
         d="m 90.89061,2339.9706 h 274.62904 l -91.54301,78.4754 h -91.54302 z"
         id="path4500-3-9-4-5-8-7-3-6-3"
         style="fill:#80db00;fill-opacity:1;stroke:none" />
      <rect
         width="323.07693"
         height="25.641024"
         x="66.666664"
         y="2306.0032"
         id="rect4498-8-7-3-2-7-1-2-5-6"
         style="fill:#80db00;fill-opacity:1;stroke:none" />
    </g>
  </g>
</svg>
